<svg xmlns="http://www.w3.org/2000/svg" version="1.1" viewBox="-5.0 -10.0 110.0 135.0">
 <path d="m43.75 48.438c8.6172 0 15.625-7.0078 15.625-15.625s-7.0078-15.625-15.625-15.625-15.625 7.0078-15.625 15.625 7.0078 15.625 15.625 15.625zm0-28.125c6.8906 0 12.5 5.6094 12.5 12.5s-5.6094 12.5-12.5 12.5-12.5-5.6094-12.5-12.5 5.6094-12.5 12.5-12.5zm37.5 45.312c-1.2305 0-2.4219 0.15625-3.5703 0.42578 4.2266-6.4062 6.6953-14.07 6.6953-22.301 0-22.402-18.223-40.625-40.625-40.625s-40.625 18.223-40.625 40.625 18.223 40.625 40.625 40.625c8.2305 0 15.895-2.4688 22.301-6.6953-0.26953 1.1484-0.42578 2.3398-0.42578 3.5703 0 8.6172 7.0078 15.625 15.625 15.625s15.625-7.0078 15.625-15.625-7.0078-15.625-15.625-15.625zm-75-21.875c0-20.676 16.824-37.5 37.5-37.5s37.5 16.824 37.5 37.5c0 9.9492-3.9023 18.996-10.246 25.719-4.6602-10.805-15.316-17.906-27.254-17.906-11.984 0-22.59 7.0938-27.246 17.91-6.3477-6.7188-10.254-15.77-10.254-25.723zm12.68 28.074c3.8984-10.301 13.695-17.137 24.82-17.137 11.082 0 20.918 6.8516 24.82 17.137-6.6172 5.8594-15.309 9.4258-24.82 9.4258s-18.203-3.5664-24.82-9.4258zm62.32 21.926c-6.8906 0-12.5-5.6094-12.5-12.5 0-3.1094 1.1484-5.9492 3.0352-8.1406 0.45312-0.43359 0.89453-0.875 1.3281-1.3281 2.1875-1.8828 5.0273-3.0312 8.1367-3.0312 6.8906 0 12.5 5.6094 12.5 12.5s-5.6094 12.5-12.5 12.5zm0-20.961 5.793 5.793-2.2109 2.2109-2.0195-2.0195v11.852h-3.125v-11.852l-2.0195 2.0195-2.2109-2.2109z"/>
<text x="0.0" y="117.5" font-size="5.0" font-weight="bold" font-family="Arbeit Regular, Helvetica, Arial-Unicode, Arial, Sans-serif" fill="#000000">Created by Chehuna</text><text x="0.0" y="122.5" font-size="5.0" font-weight="bold" font-family="Arbeit Regular, Helvetica, Arial-Unicode, Arial, Sans-serif" fill="#000000">from Noun Project</text></svg>